<mxfile host="app.diagrams.net" modified="2023-06-23T09:03:11.456Z" agent="Mozilla/5.0 (Macintosh; Intel Mac OS X 10_15_7) AppleWebKit/537.36 (KHTML, like Gecko) Chrome/114.0.0.0 Safari/537.36" etag="MeGpHn0q57pYC5MWTXAc" version="21.3.5" type="github">
  <diagram name="Page-1" id="cpkAk_n_c1t30JZw8-uk">
    <mxGraphModel dx="1738" dy="634" grid="1" gridSize="10" guides="1" tooltips="1" connect="1" arrows="1" fold="1" page="1" pageScale="1" pageWidth="850" pageHeight="1100" math="0" shadow="0">
      <root>
        <mxCell id="0" />
        <mxCell id="1" parent="0" />
        <mxCell id="tB6_Crv6nAT5SewfRAuZ-2" value="Share Drive" style="ellipse;whiteSpace=wrap;html=1;sketch=1;hachureGap=4;jiggle=2;curveFitting=1;fontFamily=Times New Roman;fontSize=20;fillColor=#ffe6cc;strokeColor=#d79b00;" vertex="1" parent="1">
          <mxGeometry x="240" y="460" width="130" height="80" as="geometry" />
        </mxCell>
        <mxCell id="tB6_Crv6nAT5SewfRAuZ-4" value="上传文件" style="edgeStyle=orthogonalEdgeStyle;rounded=0;sketch=1;hachureGap=4;jiggle=2;curveFitting=1;orthogonalLoop=1;jettySize=auto;html=1;fontFamily=Times New Roman;fontSize=16;entryX=0;entryY=0.5;entryDx=0;entryDy=0;" edge="1" parent="1" source="tB6_Crv6nAT5SewfRAuZ-3" target="tB6_Crv6nAT5SewfRAuZ-2">
          <mxGeometry x="-0.0031" relative="1" as="geometry">
            <mxPoint x="150" y="506" as="targetPoint" />
            <mxPoint as="offset" />
          </mxGeometry>
        </mxCell>
        <mxCell id="tB6_Crv6nAT5SewfRAuZ-3" value="Actor" style="shape=umlActor;verticalLabelPosition=bottom;verticalAlign=top;html=1;outlineConnect=0;sketch=1;hachureGap=4;jiggle=2;curveFitting=1;fontFamily=Times New Roman;fontSize=20;" vertex="1" parent="1">
          <mxGeometry x="20" y="470" width="30" height="60" as="geometry" />
        </mxCell>
        <mxCell id="tB6_Crv6nAT5SewfRAuZ-8" value="下载文件" style="edgeStyle=orthogonalEdgeStyle;rounded=0;sketch=1;hachureGap=4;jiggle=2;curveFitting=1;orthogonalLoop=1;jettySize=auto;html=1;entryX=1;entryY=0.5;entryDx=0;entryDy=0;fontFamily=Times New Roman;fontSize=16;" edge="1" parent="1" source="tB6_Crv6nAT5SewfRAuZ-7" target="tB6_Crv6nAT5SewfRAuZ-2">
          <mxGeometry relative="1" as="geometry" />
        </mxCell>
        <mxCell id="tB6_Crv6nAT5SewfRAuZ-17" style="edgeStyle=orthogonalEdgeStyle;rounded=0;sketch=1;hachureGap=4;jiggle=2;curveFitting=1;orthogonalLoop=1;jettySize=auto;html=1;entryX=0;entryY=0.5;entryDx=0;entryDy=0;fontFamily=Times New Roman;fontSize=16;" edge="1" parent="1" source="tB6_Crv6nAT5SewfRAuZ-7" target="tB6_Crv6nAT5SewfRAuZ-16">
          <mxGeometry relative="1" as="geometry" />
        </mxCell>
        <mxCell id="tB6_Crv6nAT5SewfRAuZ-20" style="edgeStyle=orthogonalEdgeStyle;rounded=0;sketch=1;hachureGap=4;jiggle=2;curveFitting=1;orthogonalLoop=1;jettySize=auto;html=1;exitX=1;exitY=0.5;exitDx=0;exitDy=0;entryX=0;entryY=0.5;entryDx=0;entryDy=0;fontFamily=Times New Roman;fontSize=16;" edge="1" parent="1" source="tB6_Crv6nAT5SewfRAuZ-7" target="tB6_Crv6nAT5SewfRAuZ-18">
          <mxGeometry relative="1" as="geometry" />
        </mxCell>
        <mxCell id="tB6_Crv6nAT5SewfRAuZ-22" style="edgeStyle=orthogonalEdgeStyle;rounded=0;sketch=1;hachureGap=4;jiggle=2;curveFitting=1;orthogonalLoop=1;jettySize=auto;html=1;exitX=1;exitY=0.5;exitDx=0;exitDy=0;entryX=0;entryY=0.5;entryDx=0;entryDy=0;fontFamily=Times New Roman;fontSize=16;" edge="1" parent="1" source="tB6_Crv6nAT5SewfRAuZ-7" target="tB6_Crv6nAT5SewfRAuZ-21">
          <mxGeometry relative="1" as="geometry" />
        </mxCell>
        <mxCell id="tB6_Crv6nAT5SewfRAuZ-25" style="edgeStyle=orthogonalEdgeStyle;rounded=0;sketch=1;hachureGap=4;jiggle=2;curveFitting=1;orthogonalLoop=1;jettySize=auto;html=1;entryX=0;entryY=0.5;entryDx=0;entryDy=0;fontFamily=Times New Roman;fontSize=16;" edge="1" parent="1" source="tB6_Crv6nAT5SewfRAuZ-7" target="tB6_Crv6nAT5SewfRAuZ-24">
          <mxGeometry relative="1" as="geometry" />
        </mxCell>
        <mxCell id="tB6_Crv6nAT5SewfRAuZ-27" value="上传" style="edgeLabel;html=1;align=center;verticalAlign=middle;resizable=0;points=[];fontSize=20;fontFamily=Times New Roman;" vertex="1" connectable="0" parent="tB6_Crv6nAT5SewfRAuZ-25">
          <mxGeometry x="-0.79" y="-1" relative="1" as="geometry">
            <mxPoint as="offset" />
          </mxGeometry>
        </mxCell>
        <mxCell id="tB6_Crv6nAT5SewfRAuZ-7" value="数据集成服务" style="rounded=1;whiteSpace=wrap;html=1;sketch=1;hachureGap=4;jiggle=2;curveFitting=1;fontFamily=Times New Roman;fontSize=20;" vertex="1" parent="1">
          <mxGeometry x="500" y="470" width="150" height="60" as="geometry" />
        </mxCell>
        <mxCell id="tB6_Crv6nAT5SewfRAuZ-9" value="" style="rounded=0;whiteSpace=wrap;html=1;sketch=1;hachureGap=4;jiggle=2;curveFitting=1;fontFamily=Times New Roman;fontSize=20;" vertex="1" parent="1">
          <mxGeometry x="480" y="470" width="20" height="60" as="geometry" />
        </mxCell>
        <mxCell id="tB6_Crv6nAT5SewfRAuZ-12" value="Smb adapter" style="text;html=1;strokeColor=none;fillColor=none;align=center;verticalAlign=middle;whiteSpace=wrap;rounded=0;fontSize=20;fontFamily=Times New Roman;flipH=1;" vertex="1" parent="1">
          <mxGeometry x="10.999999999999893" width="50" height="100" as="geometry" />
        </mxCell>
        <mxCell id="tB6_Crv6nAT5SewfRAuZ-13" value="&lt;font style=&quot;font-size: 8px;&quot;&gt;Smb Adapter&lt;/font&gt;" style="text;html=1;strokeColor=none;fillColor=none;align=center;verticalAlign=middle;whiteSpace=wrap;rounded=0;fontSize=20;fontFamily=Times New Roman;rotation=90;fontStyle=1" vertex="1" parent="1">
          <mxGeometry x="461.1" y="492.35" width="65" height="15.31" as="geometry" />
        </mxCell>
        <mxCell id="tB6_Crv6nAT5SewfRAuZ-14" value="文件传输流程" style="text;html=1;strokeColor=none;fillColor=none;align=center;verticalAlign=middle;whiteSpace=wrap;rounded=0;fontSize=20;fontFamily=Times New Roman;" vertex="1" parent="1">
          <mxGeometry x="20" y="400" width="140" height="30" as="geometry" />
        </mxCell>
        <mxCell id="tB6_Crv6nAT5SewfRAuZ-16" value="Linux Server" style="ellipse;whiteSpace=wrap;html=1;sketch=1;hachureGap=4;jiggle=2;curveFitting=1;fontFamily=Times New Roman;fontSize=20;fillColor=#f8cecc;strokeColor=#b85450;" vertex="1" parent="1">
          <mxGeometry x="890" y="350" width="120" height="80" as="geometry" />
        </mxCell>
        <mxCell id="tB6_Crv6nAT5SewfRAuZ-18" value="" style="strokeColor=#dddddd;shadow=1;strokeWidth=1;rounded=1;absoluteArcSize=1;arcSize=2;sketch=1;hachureGap=4;jiggle=2;curveFitting=1;fontFamily=Times New Roman;fontSize=20;" vertex="1" parent="1">
          <mxGeometry x="890" y="470" width="130" height="60" as="geometry" />
        </mxCell>
        <mxCell id="tB6_Crv6nAT5SewfRAuZ-19" value="Cloud&#xa;Storage" style="editableCssRules=.*;html=1;fontColor=#999999;shape=image;verticalLabelPosition=middle;labelBackgroundColor=#ffffff;verticalAlign=middle;labelPosition=right;align=left;spacingLeft=20;part=1;points=[];imageAspect=0;image=data:image/svg+xml,PHN2ZyB4bWxucz0iaHR0cDovL3d3dy53My5vcmcvMjAwMC9zdmciIHhtbG5zOnY9Imh0dHBzOi8vdmVjdGEuaW8vbmFubyIgd2lkdGg9IjIwIiBoZWlnaHQ9IjE2IiB2aWV3Qm94PSIwIDAgMjAgMTYiPiYjeGE7CTxzdHlsZSB0eXBlPSJ0ZXh0L2NzcyI+JiN4YTsJLnN0MHtmaWxsOiM0Mjg1ZjQ7fSYjeGE7CS5zdDF7ZmlsbDojNjY5ZGY2O30mI3hhOwkuc3Qye2ZpbGw6I2FlY2JmYTt9JiN4YTsJLnN0M3tmaWxsOiNmZmY7fSYjeGE7CTwvc3R5bGU+JiN4YTsJPHBhdGggY2xhc3M9InN0MiIgZD0iTTAgMGgyMHY3SDB6Ii8+JiN4YTsJPHBhdGggY2xhc3M9InN0MSIgZD0iTTE4IDBoMnY3aC0yeiIvPiYjeGE7CTxwYXRoIGNsYXNzPSJzdDAiIGQ9Ik0xOCA3bDItN2gtMnoiLz4mI3hhOwk8cGF0aCBjbGFzcz0ic3QxIiBkPSJNMCAwaDJ2N0gweiIvPiYjeGE7CTxnIGNsYXNzPSJzdDMiPiYjeGE7CQk8cGF0aCBkPSJNNCAzaDZ2MUg0eiIvPiYjeGE7CQk8cmVjdCB4PSIxMyIgeT0iMiIgd2lkdGg9IjMiIGhlaWdodD0iMyIgcng9IjEuNSIvPiYjeGE7CTwvZz4mI3hhOwk8cGF0aCBjbGFzcz0ic3QyIiBkPSJNMCA5aDIwdjdIMHoiLz4mI3hhOwk8cGF0aCBjbGFzcz0ic3QxIiBkPSJNMTggOWgydjdoLTJ6Ii8+JiN4YTsJPHBhdGggY2xhc3M9InN0MCIgZD0iTTE4IDE2bDItN2gtMnoiLz4mI3hhOwk8cGF0aCBjbGFzcz0ic3QxIiBkPSJNMCA5aDJ2N0gweiIvPiYjeGE7CTxnIGNsYXNzPSJzdDMiPiYjeGE7CQk8cGF0aCBkPSJNNCAxMmg2djFINHoiLz4mI3hhOwkJPHJlY3QgeD0iMTMiIHk9IjExIiB3aWR0aD0iMyIgaGVpZ2h0PSIzIiByeD0iMS41Ii8+JiN4YTsJPC9nPiYjeGE7PC9zdmc+;sketch=1;hachureGap=4;jiggle=2;curveFitting=1;fontFamily=Times New Roman;fontSize=20;" vertex="1" parent="tB6_Crv6nAT5SewfRAuZ-18">
          <mxGeometry width="30" height="24" relative="1" as="geometry">
            <mxPoint x="15" y="18" as="offset" />
          </mxGeometry>
        </mxCell>
        <mxCell id="tB6_Crv6nAT5SewfRAuZ-21" value="Email Server" style="rounded=1;whiteSpace=wrap;html=1;sketch=1;hachureGap=4;jiggle=2;curveFitting=1;fontFamily=Times New Roman;fontSize=20;fillColor=#dae8fc;strokeColor=#6c8ebf;" vertex="1" parent="1">
          <mxGeometry x="895" y="590" width="125" height="60" as="geometry" />
        </mxCell>
        <mxCell id="tB6_Crv6nAT5SewfRAuZ-24" value="Share Drive" style="ellipse;whiteSpace=wrap;html=1;sketch=1;hachureGap=4;jiggle=2;curveFitting=1;fontFamily=Times New Roman;fontSize=20;fillColor=#ffe6cc;strokeColor=#d79b00;" vertex="1" parent="1">
          <mxGeometry x="890" y="250" width="120" height="80" as="geometry" />
        </mxCell>
        <mxCell id="tB6_Crv6nAT5SewfRAuZ-29" value="" style="rounded=0;whiteSpace=wrap;html=1;sketch=1;hachureGap=4;jiggle=2;curveFitting=1;fontFamily=Times New Roman;fontSize=20;" vertex="1" parent="1">
          <mxGeometry x="640" y="470" width="20" height="60" as="geometry" />
        </mxCell>
        <mxCell id="tB6_Crv6nAT5SewfRAuZ-30" value="&lt;font style=&quot;font-size: 8px;&quot;&gt;Channel Adapter&lt;/font&gt;" style="text;html=1;strokeColor=none;fillColor=none;align=center;verticalAlign=middle;whiteSpace=wrap;rounded=0;fontSize=20;fontFamily=Times New Roman;rotation=90;fontStyle=1" vertex="1" parent="1">
          <mxGeometry x="620" y="492.35" width="65" height="15.31" as="geometry" />
        </mxCell>
      </root>
    </mxGraphModel>
  </diagram>
</mxfile>
